<?xml version="1.0" standalone="no"?>
<!DOCTYPE svg PUBLIC "-//W3C//DTD SVG 20010904//EN"
 "http://www.w3.org/TR/2001/REC-SVG-20010904/DTD/svg10.dtd">
<svg version="1.0" xmlns="http://www.w3.org/2000/svg"
 width="1425.000000pt" height="1425.000000pt" viewBox="0 0 1425.000000 1425.000000"
 preserveAspectRatio="xMidYMid meet">

<g transform="translate(0.000000,1425.000000) scale(0.100000,-0.100000)"
fill="#000000" stroke="none">
<path d="M6751 14239 c-1143 -56 -2280 -401 -3271 -992 -727 -434 -1395 -1017
-1927 -1682 -1210 -1514 -1744 -3450 -1488 -5395 167 -1269 686 -2481 1500
-3500 305 -382 727 -803 1120 -1117 1514 -1210 3450 -1744 5395 -1488 1261
166 2484 688 3485 1488 393 314 815 735 1120 1117 763 956 1259 2059 1464
3260 131 766 131 1624 0 2390 -205 1201 -701 2304 -1464 3260 -300 375 -730
805 -1105 1105 -248 198 -544 403 -810 562 -1209 721 -2591 1063 -4019 992z
m119 -2859 l0 -390 250 0 250 0 2 388 3 387 455 0 455 0 5 -395 5 -395 200 0
200 0 12 170 c13 170 48 516 59 568 l6 27 503 0 504 0 -15 -42 c-82 -233 -224
-1030 -329 -1843 -14 -110 -28 -210 -30 -222 l-5 -23 -2280 0 -2279 0 -5 33
c-3 17 -15 104 -27 192 -104 809 -233 1544 -319 1823 -11 35 -20 68 -20 73 0
5 208 8 503 7 l502 -3 22 -190 c13 -104 28 -275 35 -380 l13 -190 194 -3 c134
-2 198 1 207 9 11 9 14 82 14 400 l0 389 455 0 455 0 0 -390z m-777 -2599
c433 -91 796 -358 1009 -747 164 -297 226 -578 215 -973 -8 -311 -55 -508
-181 -766 -81 -165 -165 -283 -291 -410 -235 -235 -527 -380 -860 -425 -103
-14 -357 -14 -460 0 -650 89 -1149 568 -1293 1240 -57 263 -57 597 0 860 153
715 709 1209 1403 1248 157 9 336 -2 458 -27z m-3093 15 c204 -28 372 -77 545
-161 152 -74 229 -127 250 -171 47 -99 -36 -215 -140 -198 -22 4 -78 29 -125
56 -147 87 -316 153 -477 185 -134 27 -433 24 -570 -5 -408 -88 -728 -341
-903 -715 -110 -235 -147 -435 -137 -726 8 -232 46 -398 134 -591 82 -180 256
-391 417 -504 149 -106 352 -189 540 -221 116 -20 362 -20 486 0 139 23 315
86 477 170 93 49 154 75 175 75 72 0 138 -71 138 -147 0 -69 -45 -110 -214
-193 -319 -157 -606 -217 -941 -198 -612 35 -1176 440 -1394 1003 -102 261
-136 489 -120 798 18 342 134 659 339 927 66 85 216 234 305 302 233 176 531
291 835 321 90 9 285 5 380 -7z m6610 -49 c193 -48 314 -112 444 -236 151
-145 234 -320 256 -538 36 -377 -136 -711 -452 -878 -49 -26 -88 -48 -88 -50
0 -2 33 -21 73 -42 86 -45 214 -168 266 -257 80 -134 102 -241 121 -561 10
-182 27 -280 56 -338 10 -18 48 -62 85 -98 67 -64 69 -66 69 -116 0 -108 -113
-168 -218 -114 -63 32 -159 142 -198 225 -61 133 -77 228 -94 551 -10 201 -27
265 -99 370 -77 114 -191 179 -368 210 -69 12 -192 15 -634 15 l-549 0 0 -649
0 -648 -23 -34 c-31 -48 -86 -73 -141 -65 -55 9 -112 55 -126 104 -13 50 -14
3013 0 3061 5 19 20 45 32 59 50 53 27 52 803 49 621 -3 729 -6 785 -20z
m3413 9 c18 -7 45 -28 60 -45 35 -42 38 -124 6 -165 -42 -53 -9 -51 -869 -56
l-805 -5 -3 -582 -2 -583 685 0 c750 0 726 2 778 -59 35 -42 38 -124 6 -165
-41 -52 -16 -51 -764 -56 l-700 -5 0 -630 0 -630 808 -5 808 -5 40 -42 c34
-36 39 -49 39 -88 0 -64 -23 -103 -73 -126 -40 -18 -79 -19 -920 -19 -960 0
-918 -3 -970 59 l-27 33 0 1548 0 1548 27 33 c52 61 8 58 966 59 719 0 884 -2
910 -14z m-3493 -4179 c151 -129 245 -263 285 -401 13 -44 16 -85 13 -165 -3
-98 -6 -111 -37 -169 -53 -98 -124 -148 -262 -185 l-84 -22 -2325 0 c-2182 0
-2329 1 -2393 18 -206 52 -306 162 -315 345 -11 211 83 394 295 576 l88 76
2325 0 2326 0 84 -73z m397 -1458 c68 -26 138 -92 173 -164 34 -69 35 -197 3
-267 -30 -66 -96 -133 -162 -165 l-56 -28 -2760 0 -2760 0 -56 28 c-66 32
-132 99 -162 165 -32 69 -31 198 3 267 33 68 108 139 172 164 53 20 68 20
2800 20 l2747 1 58 -21z"/>
<path d="M5545 8514 c-245 -37 -465 -145 -639 -313 -320 -309 -463 -768 -401
-1291 42 -360 175 -637 412 -860 240 -226 549 -334 908 -317 198 9 355 50 516
134 278 145 491 404 598 728 110 332 108 744 -4 1082 -155 466 -535 785 -1005
843 -113 13 -275 11 -385 -6z"/>
<path d="M8285 8478 c-3 -7 -4 -308 -3 -668 l3 -655 565 -3 c639 -3 650 -2
791 70 231 119 369 361 369 646 -1 185 -50 311 -170 433 -53 54 -96 87 -146
112 -144 72 -121 70 -797 74 -493 3 -608 2 -612 -9z"/>
</g>
</svg>
