<?xml version="1.0" standalone="no"?>
<!DOCTYPE svg PUBLIC "-//W3C//DTD SVG 20010904//EN"
 "http://www.w3.org/TR/2001/REC-SVG-20010904/DTD/svg10.dtd">
<svg version="1.0" xmlns="http://www.w3.org/2000/svg"
 width="626.000000pt" height="313.000000pt" viewBox="0 0 626.000000 313.000000"
 preserveAspectRatio="xMidYMid meet">

<g transform="translate(0.000000,313.000000) scale(0.100000,-0.100000)"
fill="#000000" stroke="none">
<path d="M0 1565 l0 -1565 3130 0 3130 0 0 1565 0 1565 -3130 0 -3130 0 0
-1565z m2141 1011 c187 -48 342 -139 479 -283 191 -198 288 -421 306 -701 19
-288 -97 -604 -298 -813 -81 -84 -110 -103 -145 -94 l-27 6 44 28 c140 87 297
333 357 558 23 87 26 117 26 258 0 140 -3 172 -26 257 -181 685 -925 990
-1493 612 -421 -279 -577 -841 -365 -1309 66 -146 215 -336 294 -376 30 -16
37 -23 26 -30 -29 -18 -53 -7 -116 54 -432 410 -451 1108 -43 1540 162 173
376 285 602 317 101 14 273 3 379 -24z m-41 -162 c320 -81 570 -347 647 -687
10 -47 16 -119 16 -210 0 -98 3 -135 11 -127 7 7 11 62 10 148 -1 117 -5 152
-28 237 -45 164 -123 301 -235 417 l-55 58 24 25 c13 14 29 25 35 25 13 0 78
-67 134 -138 84 -110 154 -263 188 -416 20 -92 22 -299 4 -391 -29 -148 -99
-311 -186 -437 -56 -80 -183 -208 -208 -208 -10 0 -37 -13 -60 -28 -63 -42
-93 -52 -153 -52 -48 0 -60 4 -84 29 -16 16 -40 31 -53 35 -60 15 -107 81
-107 150 0 51 21 97 148 326 63 113 141 253 174 312 43 78 71 116 101 138 50
37 108 54 154 45 36 -6 103 -59 103 -80 0 -10 40 -30 46 -22 7 10 -21 172 -42
238 -46 147 -104 243 -211 351 -105 107 -226 179 -370 220 -102 29 -304 31
-403 4 -311 -85 -551 -345 -615 -662 -9 -45 -15 -99 -13 -120 l3 -39 46 47
c80 82 157 86 251 15 37 -28 70 -81 228 -367 l185 -335 0 -72 c0 -62 -3 -75
-25 -99 -14 -14 -44 -35 -67 -46 -24 -10 -43 -23 -43 -28 0 -18 -59 -40 -107
-40 -51 0 -138 34 -162 63 -7 10 -24 17 -38 17 -56 0 -210 180 -292 340 -88
173 -123 313 -123 495 1 253 86 478 256 677 69 80 82 87 114 54 l25 -24 -64
-71 c-120 -134 -199 -289 -234 -456 -18 -89 -22 -295 -6 -322 8 -13 10 17 11
108 0 193 26 304 107 460 123 236 345 402 608 455 87 17 265 11 355 -12z
m1751 -63 l29 -29 0 -166 0 -166 69 0 c90 0 121 -21 121 -85 0 -27 -7 -51 -19
-66 -18 -23 -27 -24 -146 -27 -143 -4 -161 -1 -193 28 -22 20 -22 26 -22 255
l0 233 31 26 c43 36 91 35 130 -3z m522 18 c14 -6 30 -21 36 -33 21 -40 151
-427 151 -449 0 -35 -27 -65 -70 -78 -33 -10 -43 -9 -71 7 -20 12 -37 33 -44
54 -10 31 -16 35 -52 38 -38 3 -42 1 -48 -26 -10 -46 -49 -77 -97 -77 -33 0
-45 6 -69 33 -16 18 -29 40 -29 50 0 17 105 320 145 420 26 63 87 89 148 61z
m284 -7 c11 -9 34 -43 50 -76 l30 -59 27 54 c48 94 94 119 156 82 29 -16 50
-51 50 -80 0 -8 -31 -73 -70 -143 -67 -121 -70 -131 -70 -193 0 -85 -12 -113
-54 -133 -41 -20 -78 -13 -112 21 -21 21 -24 33 -24 101 0 71 -3 82 -39 144
-75 131 -103 195 -95 223 15 63 103 98 151 59z m-1111 -17 c71 -36 98 -80 102
-172 4 -66 2 -78 -23 -114 -30 -46 -109 -89 -162 -89 -24 0 -33 -5 -34 -17 -3
-85 -16 -121 -50 -139 -40 -20 -88 -12 -120 22 -24 25 -24 29 -26 234 -3 295
-1 300 162 300 88 0 108 -3 151 -25z m-132 -890 c13 -9 36 -45 51 -80 15 -36
30 -65 34 -65 7 0 51 99 51 115 0 18 71 50 111 50 23 0 49 -9 66 -21 l28 -21
3 -242 2 -242 -24 -24 c-19 -19 -36 -25 -70 -25 -60 0 -96 40 -96 107 0 39 -2
44 -17 38 -38 -16 -63 -17 -91 -2 l-30 14 -4 -53 c-6 -73 -35 -104 -95 -104
-33 0 -50 6 -68 25 -24 23 -25 30 -26 147 -2 248 3 353 14 367 32 39 114 46
161 16z m541 10 c18 -9 37 -26 43 -39 5 -12 11 -92 11 -176 1 -84 4 -157 7
-162 7 -10 35 -10 52 0 10 7 10 20 1 61 -9 44 -9 55 2 63 11 7 11 11 2 15 -15
6 -17 49 -3 58 6 3 10 33 10 65 0 48 4 64 26 89 22 27 32 31 72 31 33 -1 55
-7 72 -21 25 -21 25 -21 25 -203 0 -99 -3 -193 -8 -208 -11 -40 -66 -98 -112
-119 -26 -12 -64 -19 -110 -19 -85 0 -143 25 -189 83 l-31 39 -6 191 c-8 213
-5 227 54 252 41 18 43 18 82 0z m645 -1 c33 -10 67 -29 87 -49 32 -32 34 -36
31 -101 -2 -47 -7 -69 -17 -72 -8 -3 -11 0 -7 7 4 6 2 11 -3 11 -6 0 -11 -4
-11 -8 0 -5 -14 -6 -31 -4 l-31 5 43 -41 c30 -27 52 -40 70 -39 l26 2 2 113
c3 145 11 162 84 186 25 8 83 -18 96 -42 7 -13 11 -105 11 -252 l0 -231 -25
-24 c-36 -37 -97 -35 -136 4 -28 28 -29 34 -29 116 0 55 -4 84 -10 80 -5 -3
-10 -1 -10 4 0 6 -5 11 -11 11 -7 0 -9 -12 -5 -32 7 -42 -7 -104 -32 -137 -10
-14 -36 -36 -58 -48 -82 -47 -236 -19 -293 53 -19 24 -22 36 -15 74 3 25 6
103 5 174 -2 123 0 131 24 167 27 41 69 68 125 80 54 11 63 10 120 -7z m713
-8 c18 -7 45 -28 60 -45 71 -85 -7 -183 -106 -136 -65 31 -72 23 -75 -88 -3
-114 2 -120 78 -93 78 28 130 0 130 -70 0 -103 -169 -160 -289 -99 -93 46
-115 105 -110 287 4 121 5 128 34 169 42 60 102 89 182 89 35 0 78 -6 96 -14z"/>
<path d="M1214 2198 l-19 -23 23 19 c21 18 27 26 19 26 -2 0 -12 -10 -23 -22z"/>
<path d="M2580 2186 c0 -2 8 -10 18 -17 15 -13 16 -12 3 4 -13 16 -21 21 -21
13z"/>
<path d="M1203 1605 c-61 -26 -55 -76 32 -277 54 -123 132 -255 264 -443 97
-139 99 -140 140 -143 35 -3 46 2 71 27 37 37 40 92 9 154 -19 38 -269 495
-325 593 -42 75 -130 116 -191 89z"/>
<path d="M2495 1601 c-51 -24 -83 -60 -128 -141 -48 -89 -78 -143 -165 -300
-162 -291 -169 -309 -137 -370 19 -36 43 -50 89 -50 31 0 40 6 76 55 40 54
232 346 258 394 8 13 22 38 31 55 35 62 111 270 111 302 0 58 -69 86 -135 55z"/>
<path d="M1091 1483 c-26 -94 -2 -199 93 -397 137 -289 242 -406 364 -406 45
0 53 8 24 27 -24 14 -137 172 -242 336 -89 140 -141 244 -189 381 -17 50 -33
92 -35 94 -3 2 -9 -13 -15 -35z"/>
<path d="M2680 1509 c0 -28 -81 -224 -135 -326 -74 -141 -287 -455 -322 -476
-50 -31 48 -37 107 -7 82 42 152 134 253 335 105 209 131 290 125 390 -3 42
-10 81 -17 88 -8 8 -11 7 -11 -4z"/>
<path d="M2619 939 c-58 -80 -75 -106 -63 -94 17 16 80 98 99 128 31 49 10 28
-36 -34z"/>
<path d="M1171 928 c18 -27 41 -56 53 -65 18 -17 18 -16 -2 12 -12 17 -36 46
-53 65 l-31 35 33 -47z"/>
<path d="M3746 2304 c-3 -9 -6 -105 -6 -214 0 -167 2 -201 16 -214 12 -13 39
-16 128 -16 122 0 144 9 131 50 -7 20 -9 21 -117 26 -84 3 -79 -8 -77 188 1
95 -1 179 -5 185 -11 17 -63 13 -70 -5z"/>
<path d="M4286 2311 c-18 -29 -147 -425 -142 -436 3 -9 18 -15 35 -15 26 0 31
5 46 51 10 28 23 53 31 56 8 3 44 1 80 -3 l66 -9 17 -45 c15 -40 20 -45 46
-45 43 0 43 28 1 138 -20 50 -49 137 -66 191 -17 55 -35 105 -41 113 -13 15
-65 18 -73 4z m74 -190 c6 -16 10 -42 8 -57 -3 -26 -8 -30 -45 -35 -35 -4 -43
-2 -44 10 -2 25 2 44 16 79 18 41 48 43 65 3z"/>
<path d="M4572 2308 c-7 -7 -12 -16 -12 -21 0 -5 29 -63 65 -128 65 -117 65
-118 65 -197 0 -86 10 -106 52 -100 21 3 23 9 29 88 6 82 8 89 73 203 75 130
80 160 31 165 -28 3 -32 -2 -75 -85 -60 -117 -71 -117 -128 0 -35 71 -47 87
-66 87 -12 0 -27 -5 -34 -12z"/>
<path d="M3302 2308 c-14 -14 -17 -414 -3 -436 5 -8 21 -12 37 -10 l29 3 3 82
3 82 57 -1 c75 -1 128 24 150 69 14 30 14 35 2 43 -13 8 -12 10 2 10 13 0 15
7 11 43 -8 62 -35 94 -95 112 -62 18 -179 20 -196 3z m200 -88 c23 -29 23 -72
-1 -101 -15 -19 -28 -23 -72 -24 -46 0 -54 3 -57 20 -3 11 -9 23 -16 27 -8 6
-7 8 2 8 8 0 12 15 12 43 0 24 3 47 8 51 4 4 29 6 56 3 36 -3 55 -11 68 -27z"/>
<path d="M3427 2171 c-6 -24 0 -31 19 -24 18 7 18 43 0 43 -7 0 -16 -9 -19
-19z"/>
<path d="M3301 1406 c-8 -9 -11 -78 -9 -226 3 -190 5 -214 21 -224 12 -8 22
-8 35 0 14 9 17 29 20 114 1 57 7 109 13 116 7 9 5 14 -8 17 -10 3 14 5 52 6
39 1 65 5 58 9 -6 4 -30 48 -53 97 -23 49 -47 93 -53 97 -20 12 -64 9 -76 -6z"/>
<path d="M3618 1403 c-8 -10 -32 -53 -54 -97 -21 -43 -44 -81 -51 -83 -7 -3
-13 -11 -13 -19 0 -10 -10 -12 -45 -7 l-45 6 31 -57 c27 -50 35 -57 57 -54 17
2 34 15 48 38 42 67 60 80 107 80 l44 0 7 93 c5 80 4 94 -11 105 -24 17 -57
15 -75 -5z m60 -99 c0 -17 -4 -22 -11 -15 -5 5 -7 17 -4 25 9 23 15 19 15 -10z
m-1 -60 c-3 -3 -12 -4 -19 -1 -8 3 -5 6 6 6 11 1 17 -2 13 -5z"/>
<path d="M3632 1078 l-2 -118 26 -6 c41 -11 52 10 46 93 -4 69 -5 72 -33 78
-22 5 -29 13 -32 38 -2 18 -5 -21 -5 -85z"/>
<path d="M3882 1408 c-8 -8 -12 -61 -12 -172 0 -140 2 -165 20 -202 37 -75
157 -107 246 -64 47 23 70 61 79 131 4 32 3 38 -4 24 -7 -14 -10 12 -10 87 -1
61 3 109 9 113 6 3 10 24 10 45 0 44 -24 59 -60 40 -19 -10 -20 -20 -20 -166
0 -200 -6 -214 -97 -214 -45 0 -57 4 -83 30 -29 29 -40 47 -20 35 6 -3 10 4
10 17 0 18 -2 20 -10 8 -7 -10 -10 13 -10 76 0 57 4 94 12 102 9 9 9 12 -2 12
-11 0 -11 3 -2 12 7 7 12 26 12 43 0 34 -15 55 -40 55 -9 0 -21 -5 -28 -12z"/>
<path d="M4464 1406 c-37 -16 -77 -64 -69 -84 3 -7 0 -22 -5 -33 -8 -14 -7
-28 5 -53 20 -41 45 -55 45 -25 0 11 7 43 16 70 22 65 49 78 117 55 26 -10 52
-14 57 -11 6 3 10 0 10 -7 0 -9 5 -8 16 4 23 23 3 55 -49 79 -49 22 -100 24
-143 5z"/>
<path d="M4832 1408 c-9 -9 -12 -74 -12 -230 l0 -218 26 -6 c17 -4 31 -1 41 9
13 13 14 29 5 116 -7 68 -7 134 -1 206 8 80 7 110 -2 121 -14 17 -41 18 -57 2z"/>
<path d="M4517 1222 c-13 -22 17 -55 74 -81 43 -20 57 -30 45 -34 -9 -4 -16
-13 -16 -21 0 -10 -6 -13 -15 -10 -9 4 -15 0 -15 -9 0 -24 -29 -47 -59 -47
-16 0 -49 11 -74 25 -63 33 -95 19 -76 -32 9 -24 101 -63 150 -63 44 0 95 25
115 55 22 33 25 101 7 137 -14 28 -128 95 -136 80z"/>
<path d="M4390 1135 c7 -8 20 -15 29 -15 13 1 13 3 -3 15 -26 19 -42 19 -26 0z"/>
<path d="M4475 1100 c9 -15 45 -32 45 -22 0 5 -12 14 -26 20 -14 7 -23 8 -19
2z"/>
<path d="M4590 1100 c0 -5 4 -10 9 -10 6 0 13 5 16 10 3 6 -1 10 -9 10 -9 0
-16 -4 -16 -10z"/>
<path d="M5140 1397 c-68 -36 -84 -76 -85 -217 0 -98 3 -120 20 -150 24 -42
94 -80 145 -80 71 1 147 55 125 90 -8 14 -48 13 -63 -2 -6 -6 -31 -11 -56 -12
-35 -1 -51 4 -68 22 -21 21 -23 31 -23 136 0 96 3 117 18 134 28 30 64 35 117
16 76 -27 107 2 55 50 -45 42 -121 47 -185 13z"/>
</g>
</svg>
